<svg width="0" height="0" class="hidden">
  <symbol xmlns="http://www.w3.org/2000/svg" viewBox="0 0 24 24" id="call-24px">
    <path d="M0 0h24v24H0z" fill="none"></path>
    <path d="M20.01 15.38c-1.23 0-2.42-.2-3.53-.56a.977.977 0 00-1.01.24l-1.57 1.97c-2.83-1.35-5.48-3.9-6.89-6.83l1.95-1.66c.27-.28.35-.67.24-1.02-.37-1.11-.56-2.3-.56-3.53 0-.54-.45-.99-.99-.99H4.19C3.65 3 3 3.24 3 3.99 3 13.28 10.73 21 20.01 21c.71 0 .99-.63.99-1.18v-3.45c0-.54-.45-.99-.99-.99z"></path>
  </symbol>
  <symbol xmlns="http://www.w3.org/2000/svg" viewBox="0 0 24 24" id="email-24px">
    <path d="M0 0h24v24H0z" fill="none"></path>
    <path d="M20 4H4c-1.1 0-1.99.9-1.99 2L2 18c0 1.1.9 2 2 2h16c1.1 0 2-.9 2-2V6c0-1.1-.9-2-2-2zm0 4l-8 5-8-5V6l8 5 8-5v2z"></path>
  </symbol>
  <symbol xmlns="http://www.w3.org/2000/svg" viewBox="0 0 24 24" id="login-24px">
    <path fill="none" d="M0 0h24v24H0z"></path>
    <path d="M11 7L9.6 8.4l2.6 2.6H2v2h10.2l-2.6 2.6L11 17l5-5-5-5zm9 12h-8v2h8c1.1 0 2-.9 2-2V5c0-1.1-.9-2-2-2h-8v2h8v14z"></path>
  </symbol>
  <symbol xmlns="http://www.w3.org/2000/svg" viewBox="0 0 24 24" id="print-24px">
    <path d="M0 0h24v24H0z" fill="none"></path>
    <path d="M19 8H5c-1.66 0-3 1.34-3 3v6h4v4h12v-4h4v-6c0-1.66-1.34-3-3-3zm-3 11H8v-5h8v5zm3-7c-.55 0-1-.45-1-1s.45-1 1-1 1 .45 1 1-.45 1-1 1zm-1-9H6v4h12V3z"></path>
  </symbol>
  <symbol xmlns="http://www.w3.org/2000/svg" viewBox="0 0 24 24" id="app_registration-24px">
    <path fill="none" d="M0 0h24v24H0z"></path>
    <path d="M10 4h4v4h-4zM4 16h4v4H4zm0-6h4v4H4zm0-6h4v4H4zm10 8.42V10h-4v4h2.42zm6.88-1.13l-1.17-1.17a.41.41 0 00-.58 0l-.88.88L20 12.75l.88-.88a.41.41 0 000-.58zM11 18.25V20h1.75l6.67-6.67-1.75-1.75zM16 4h4v4h-4z"></path>
  </symbol>
</svg>